<svg width="81" height="16" viewBox="0 0 81 16" fill="none" xmlns="http://www.w3.org/2000/svg">
<g id="emaar-text-logo 2" clip-path="url(#clip0_13845_71143)">
<g id="Page-1">
<path id="Shape" d="M11.7089 14.375L11.4696 15.9601H0.0253906C0.498911 14.8635 0.469004 14.2454 0.469004 13.4529V2.55694C0.469004 1.78933 0.498911 1.11644 0.0253906 0.0497702H3.45467H11.1905L11.2104 1.66472C11.0011 1.57999 10.8316 1.50522 10.6771 1.43544C10.2634 1.28092 9.74003 1.13637 9.19673 1.14136C8.32944 1.14136 4.69081 1.14136 3.07586 1.14136V7.37189H10.2584L9.90452 8.59806H3.07586V14.8336C4.39673 14.8336 8.61854 14.8336 9.55062 14.8336C10.6422 14.8535 11.7288 14.2354 11.7288 14.2354L11.6989 14.37C11.6989 14.375 11.7039 14.375 11.7089 14.375ZM28.935 15.9601C29.0896 15.1775 29.0896 14.071 28.965 13.1688L27.9481 5.6722L22.3955 15.9551H21.3388L15.6964 5.20865L14.5998 13.3333C14.4802 14.2703 14.4453 15.4566 14.545 15.9601H12.5612C12.945 15.1476 13.0397 14.7937 13.2192 13.4579L15.0136 0.0497702H15.9257L22.5101 12.5607L29.0896 0.0497702H29.7774L31.6316 13.428C31.816 14.7588 31.9556 15.1426 32.3245 15.9601H28.935ZM45.6478 15.9601L43.0061 10.1333H37.6927L35.0858 15.9601H34.8615H33.0223H33.0123C33.6702 15.1426 33.8945 14.7638 34.3581 13.747L40.5188 0.0497702H41.2117L47.2727 13.3632C47.9207 14.6641 48.2248 15.0678 49.1519 15.9601H45.6478ZM62.2709 15.9601L59.6291 10.1333H54.3157L51.7089 15.9601H51.4896H49.6453H49.6354C50.2933 15.1426 50.5176 14.7638 50.9811 13.747L57.1419 0.0497702H57.8347L63.9008 13.3632C64.5488 14.6641 64.8528 15.0678 65.7799 15.9601H62.2709ZM77.3338 15.97C75.7438 14.5196 73.6852 12.5956 71.1082 9.5451C70.3706 8.68279 69.8522 8.57314 69.5182 8.5532V13.4529C69.5182 14.2404 69.5182 14.8635 69.9668 15.9601H66.4678C66.9413 14.8635 66.9114 14.2454 66.9114 13.4529V2.54697C66.9114 1.77937 66.9413 1.10647 66.4678 0.0398013H69.897C72.2397 0.0398013 77.7774 -0.169545 77.7774 4.40616C77.7774 6.8236 75.8584 8.12454 73.6054 8.45351L72.9375 8.51831C72.9375 8.51831 80.2447 15.661 80.5587 15.97H77.3338ZM73.1917 7.54136L73.1868 7.54634C74.6621 6.98809 75.1606 5.58746 75.1107 4.40117C75.0559 3.25974 74.5425 0.777496 69.5232 0.976873V7.76067C69.5232 7.76067 72.3344 7.91519 73.122 7.57127C73.1668 7.55133 73.1917 7.54136 73.1917 7.54136ZM54.8241 9.02173H59.1157L56.9525 4.27158L54.8241 9.02173ZM38.2061 9.02173H42.4977L40.3344 4.27158L38.2061 9.02173Z" fill="#3C3D3F"/>
</g>
</g>
<defs>
<clipPath id="clip0_13845_71143">
<rect width="80.5981" height="16" fill="white"/>
</clipPath>
</defs>
</svg>
