<svg width="24" height="24" viewBox="0 0 24 24" fill="none" xmlns="http://www.w3.org/2000/svg">
<g id="FacebookLogo">
<path id="Vector" d="M12 2.25C9.4791 2.25005 7.05619 3.22647 5.23968 4.97439C3.42317 6.72231 2.35426 9.10586 2.25723 11.6249C2.1602 14.1439 3.0426 16.6026 4.71928 18.4851C6.39595 20.3676 8.73657 21.5275 11.25 21.7214V14.2501H9C8.80109 14.2501 8.61032 14.1711 8.46967 14.0304C8.32902 13.8898 8.25 13.699 8.25 13.5001C8.25 13.3012 8.32902 13.1104 8.46967 12.9698C8.61032 12.8291 8.80109 12.7501 9 12.7501H11.25V10.5001C11.2509 9.70472 11.5673 8.94218 12.1297 8.37977C12.6921 7.81736 13.4546 7.501 14.25 7.50009H15.75C15.9489 7.50009 16.1397 7.57911 16.2803 7.71976C16.421 7.86041 16.5 8.05118 16.5 8.25009C16.5 8.449 16.421 8.63977 16.2803 8.78042C16.1397 8.92107 15.9489 9.00009 15.75 9.00009H14.25C13.8523 9.00054 13.471 9.15872 13.1898 9.43993C12.9086 9.72114 12.7505 10.1024 12.75 10.5001V12.7501H15C15.1989 12.7501 15.3897 12.8291 15.5303 12.9698C15.671 13.1104 15.75 13.3012 15.75 13.5001C15.75 13.699 15.671 13.8898 15.5303 14.0304C15.3897 14.1711 15.1989 14.2501 15 14.2501H12.75V21.7214C15.2634 21.5275 17.604 20.3676 19.2807 18.4851C20.9574 16.6026 21.8398 14.1439 21.7427 11.6249C21.6457 9.10587 20.5768 6.72232 18.7603 4.9744C16.9438 3.22648 14.5209 2.25006 12 2.25Z" fill="#2D2A26"/>
</g>
</svg>
